{
  "accessors": [
    {
      "name": "Tire-Mesh_0_positions",
      "componentType": 5126,
      "count": 475,
      "min": [
        -157.49411010742188,
        0,
        17.587003707885742
      ],
      "max": [
        -24.854116439819336,
        132.63999938964844,
        22.485437393188477
      ],
      "type": "VEC3",
      "bufferView": 0,
      "byteOffset": 0
    },
    {
      "name": "Tire-Mesh_0_texcoords",
      "componentType": 5126,
      "count": 475,
      "min": [
        0,
        0
      ],
      "max": [
        1,
        1
      ],
      "type": "VEC2",
      "bufferView": 1,
      "byteOffset": 0
    },
    {
      "name": "Tire-Mesh_0_indices",
      "componentType": 5123,
      "count": 2592,
      "min": [
        0
      ],
      "max": [
        474
      ],
      "type": "SCALAR",
      "bufferView": 2,
      "byteOffset": 0
    },
    {
      "name": "Tire_1-Mesh_0_positions",
      "componentType": 5126,
      "count": 475,
      "min": [
        64.43140411376953,
        0,
        17.587003707885742
      ],
      "max": [
        197.0714111328125,
        132.63999938964844,
        22.485437393188477
      ],
      "type": "VEC3",
      "bufferView": 0,
      "byteOffset": 5700
    },
    {
      "name": "Tire_1-Mesh_0_texcoords",
      "componentType": 5126,
      "count": 475,
      "min": [
        0,
        0
      ],
      "max": [
        1,
        1
      ],
      "type": "VEC2",
      "bufferView": 1,
      "byteOffset": 3800
    },
    {
      "name": "Tire_1-Mesh_0_indices",
      "componentType": 5123,
      "count": 2592,
      "min": [
        0
      ],
      "max": [
        474
      ],
      "type": "SCALAR",
      "bufferView": 2,
      "byteOffset": 5184
    },
    {
      "name": "Subdivision_Surface.2-Mesh_0_positions",
      "componentType": 5126,
      "count": 410,
      "min": [
        -74.97367095947266,
        24.634620666503906,
        -33.278656005859375
      ],
      "max": [
        104.11005401611328,
        201.75506591796875,
        74.12562561035156
      ],
      "type": "VEC3",
      "bufferView": 0,
      "byteOffset": 11400
    },
    {
      "name": "Subdivision_Surface.2-Mesh_0_indices",
      "componentType": 5123,
      "count": 2154,
      "min": [
        0
      ],
      "max": [
        409
      ],
      "type": "SCALAR",
      "bufferView": 2,
      "byteOffset": 10368
    },
    {
      "name": "Subdivision_Surface.2-Mesh_1_positions",
      "componentType": 5126,
      "count": 3734,
      "min": [
        -154.1434783935547,
        2.8726868629455566,
        -26.125070571899414
      ],
      "max": [
        194.6571502685547,
        201.7800750732422,
        67.07003021240234
      ],
      "type": "VEC3",
      "bufferView": 0,
      "byteOffset": 16320
    },
    {
      "name": "Subdivision_Surface.2-Mesh_1_indices",
      "componentType": 5123,
      "count": 21318,
      "min": [
        0
      ],
      "max": [
        3733
      ],
      "type": "SCALAR",
      "bufferView": 2,
      "byteOffset": 14676
    },
    {
      "name": "Subdivision_Surface.2-Mesh_2_positions",
      "componentType": 5126,
      "count": 709,
      "min": [
        -89.40481567382812,
        53.75681686401367,
        5.303669452667236
      ],
      "max": [
        132.28773498535156,
        161.34205627441406,
        34.85881042480469
      ],
      "type": "VEC3",
      "bufferView": 0,
      "byteOffset": 61128
    },
    {
      "name": "Subdivision_Surface.2-Mesh_2_indices",
      "componentType": 5123,
      "count": 3654,
      "min": [
        0
      ],
      "max": [
        708
      ],
      "type": "SCALAR",
      "bufferView": 2,
      "byteOffset": 57312
    }
  ],
  "asset": {
    "generator": "obj2gltf",
    "version": "2.0"
  },
  "buffers": [
    {
      "name": "bike",
      "byteLength": 141864,
      "uri": "data:application/octet-stream;base64,"
    }
  ],
  "bufferViews": [
    {
      "name": "bufferView_0",
      "buffer": 0,
      "byteLength": 69636,
      "byteOffset": 0,
      "byteStride": 12,
      "target": 34962
    },
    {
      "name": "bufferView_1",
      "buffer": 0,
      "byteLength": 7600,
      "byteOffset": 69640,
      "byteStride": 8,
      "target": 34962
    },
    {
      "name": "bufferView_2",
      "buffer": 0,
      "byteLength": 64620,
      "byteOffset": 77240,
      "target": 34963
    }
  ],
  "materials": [
    {
      "name": "Mat",
      "pbrMetallicRoughness": {
        "baseColorFactor": [
          0.02,
          0.02,
          0.02,
          1
        ],
        "metallicFactor": 0,
        "roughnessFactor": 0.95
      },
      "emissiveFactor": [
        0,
        0,
        0
      ],
      "alphaMode": "OPAQUE",
      "doubleSided": false
    },
    {
      "name": "Mat-2",
      "pbrMetallicRoughness": {
        "baseColorFactor": [
          0.02,
          0.02,
          0.02,
          1
        ],
        "metallicFactor": 0,
        "roughnessFactor": 0.95
      },
      "emissiveFactor": [
        0,
        0,
        0
      ],
      "alphaMode": "OPAQUE",
      "doubleSided": false
    },
    {
      "name": "default",
      "pbrMetallicRoughness": {
        "baseColorFactor": [
          1,
          1,
          1,
          1
        ],
        "metallicFactor": 0,
        "roughnessFactor": 1
      },
      "emissiveFactor": [
        0,
        0,
        0
      ],
      "alphaMode": "OPAQUE",
      "doubleSided": false
    },
    {
      "name": "Mat.2",
      "pbrMetallicRoughness": {
        "baseColorFactor": [
          0.78,
          0.39,
          0.04,
          1
        ],
        "metallicFactor": 0,
        "roughnessFactor": 0.95
      },
      "emissiveFactor": [
        0,
        0,
        0
      ],
      "alphaMode": "OPAQUE",
      "doubleSided": false
    }
  ],
  "meshes": [
    {
      "name": "Tire-Mesh",
      "primitives": [
        {
          "attributes": {
            "POSITION": 0,
            "TEXCOORD_0": 1
          },
          "indices": 2,
          "material": 0,
          "mode": 4
        }
      ]
    },
    {
      "name": "Tire_1-Mesh",
      "primitives": [
        {
          "attributes": {
            "POSITION": 3,
            "TEXCOORD_0": 4
          },
          "indices": 5,
          "material": 0,
          "mode": 4
        }
      ]
    },
    {
      "name": "Subdivision_Surface.2-Mesh",
      "primitives": [
        {
          "attributes": {
            "POSITION": 6
          },
          "indices": 7,
          "material": 1,
          "mode": 4
        },
        {
          "attributes": {
            "POSITION": 8
          },
          "indices": 9,
          "material": 2,
          "mode": 4
        },
        {
          "attributes": {
            "POSITION": 10
          },
          "indices": 11,
          "material": 3,
          "mode": 4
        }
      ]
    }
  ],
  "nodes": [
    {
      "name": "Tire",
      "mesh": 0
    },
    {
      "name": "Tire_1",
      "mesh": 1
    },
    {
      "name": "Subdivision_Surface.2",
      "mesh": 2
    }
  ],
  "scene": 0,
  "scenes": [
    {
      "nodes": [
        0,
        1,
        2
      ]
    }
  ]
}
