{
  "accessors": [
    {
      "name": "mesh150976227_0_positions",
      "componentType": 5126,
      "count": 1344,
      "min": [
        -0.6866729259490967,
        0.00658342195674777,
        -0.7321802973747253
      ],
      "max": [
        0.4613511860370636,
        0.7109339237213135,
        0.5577445030212402
      ],
      "type": "VEC3",
      "bufferView": 0,
      "byteOffset": 0
    },
    {
      "name": "mesh150976227_0_normals",
      "componentType": 5126,
      "count": 1344,
      "min": [
        -0.9851245284080505,
        -0.999354898929596,
        -0.997730553150177
      ],
      "max": [
        0.9851245284080505,
        0.9993548393249512,
        0.997730553150177
      ],
      "type": "VEC3",
      "bufferView": 1,
      "byteOffset": 0
    },
    {
      "name": "mesh150976227_0_texcoords",
      "componentType": 5126,
      "count": 1344,
      "min": [
        -0.15818490087985992,
        0.8464580774307251
      ],
      "max": [
        0.15818490087985992,
        1.135322093963623
      ],
      "type": "VEC2",
      "bufferView": 2,
      "byteOffset": 0
    },
    {
      "name": "mesh150976227_0_indices",
      "componentType": 5123,
      "count": 1908,
      "min": [
        0
      ],
      "max": [
        1343
      ],
      "type": "SCALAR",
      "bufferView": 3,
      "byteOffset": 0
    },
    {
      "name": "mesh150976227_1_positions",
      "componentType": 5126,
      "count": 120,
      "min": [
        -0.259295791387558,
        -0.2909592092037201,
        -0.2901515066623688
      ],
      "max": [
        0.3694863021373749,
        0.35671940445899963,
        0.15497079491615295
      ],
      "type": "VEC3",
      "bufferView": 0,
      "byteOffset": 16128
    },
    {
      "name": "mesh150976227_1_normals",
      "componentType": 5126,
      "count": 120,
      "min": [
        -0.9894208312034607,
        -0.9616062045097351,
        -0.9548738598823547
      ],
      "max": [
        0.9894208312034607,
        0.9616062045097351,
        0.9548738598823547
      ],
      "type": "VEC3",
      "bufferView": 1,
      "byteOffset": 16128
    },
    {
      "name": "mesh150976227_1_texcoords",
      "componentType": 5126,
      "count": 120,
      "min": [
        -0.1272881031036377,
        0.8574783205986023
      ],
      "max": [
        0.1272881031036377,
        1.0557633638381958
      ],
      "type": "VEC2",
      "bufferView": 2,
      "byteOffset": 10752
    },
    {
      "name": "mesh150976227_1_indices",
      "componentType": 5123,
      "count": 180,
      "min": [
        0
      ],
      "max": [
        119
      ],
      "type": "SCALAR",
      "bufferView": 3,
      "byteOffset": 3816
    },
    {
      "name": "mesh150976227_2_positions",
      "componentType": 5126,
      "count": 96,
      "min": [
        -0.33131060004234314,
        -1.110474944114685,
        -0.5845339894294739
      ],
      "max": [
        0.4539729058742523,
        -0.17854760587215424,
        0.8351250886917114
      ],
      "type": "VEC3",
      "bufferView": 0,
      "byteOffset": 17568
    },
    {
      "name": "mesh150976227_2_normals",
      "componentType": 5126,
      "count": 96,
      "min": [
        -0.9865095019340515,
        -0.9457943439483643,
        -0.9498461484909058
      ],
      "max": [
        0.9865095019340515,
        0.9457943439483643,
        0.9498461484909058
      ],
      "type": "VEC3",
      "bufferView": 1,
      "byteOffset": 17568
    },
    {
      "name": "mesh150976227_2_texcoords",
      "componentType": 5126,
      "count": 96,
      "min": [
        -0.16542069613933563,
        0.852994978427887
      ],
      "max": [
        0.16542069613933563,
        1.0866719484329224
      ],
      "type": "VEC2",
      "bufferView": 2,
      "byteOffset": 11712
    },
    {
      "name": "mesh150976227_2_indices",
      "componentType": 5123,
      "count": 144,
      "min": [
        0
      ],
      "max": [
        95
      ],
      "type": "SCALAR",
      "bufferView": 3,
      "byteOffset": 4176
    },
    {
      "name": "mesh150976227_3_positions",
      "componentType": 5126,
      "count": 48,
      "min": [
        -0.3217921853065491,
        -1.1511269807815552,
        -0.7277324199676514
      ],
      "max": [
        0.47519129514694214,
        -0.20512010157108307,
        1.0128439664840698
      ],
      "type": "VEC3",
      "bufferView": 0,
      "byteOffset": 18720
    },
    {
      "name": "mesh150976227_3_normals",
      "componentType": 5126,
      "count": 48,
      "min": [
        -0.9646315574645996,
        -0.922631025314331,
        -0.9361696839332581
      ],
      "max": [
        0.9646315574645996,
        0.922631025314331,
        0.9361696839332581
      ],
      "type": "VEC3",
      "bufferView": 1,
      "byteOffset": 18720
    },
    {
      "name": "mesh150976227_3_texcoords",
      "componentType": 5126,
      "count": 48,
      "min": [
        -0.1977124959230423,
        0.8489819765090942
      ],
      "max": [
        0.1977124959230423,
        1.0990023612976074
      ],
      "type": "VEC2",
      "bufferView": 2,
      "byteOffset": 12480
    },
    {
      "name": "mesh150976227_3_indices",
      "componentType": 5123,
      "count": 72,
      "min": [
        0
      ],
      "max": [
        47
      ],
      "type": "SCALAR",
      "bufferView": 3,
      "byteOffset": 4464
    }
  ],
  "asset": {
    "generator": "obj2gltf",
    "version": "2.0"
  },
  "buffers": [
    {
      "name": "runningMan",
      "byteLength": 56064,
      "uri": "data:application/octet-stream;base64,"
    }
  ],
  "bufferViews": [
    {
      "name": "bufferView_0",
      "buffer": 0,
      "byteLength": 19296,
      "byteOffset": 0,
      "byteStride": 12,
      "target": 34962
    },
    {
      "name": "bufferView_1",
      "buffer": 0,
      "byteLength": 19296,
      "byteOffset": 19296,
      "byteStride": 12,
      "target": 34962
    },
    {
      "name": "bufferView_2",
      "buffer": 0,
      "byteLength": 12864,
      "byteOffset": 38592,
      "byteStride": 8,
      "target": 34962
    },
    {
      "name": "bufferView_3",
      "buffer": 0,
      "byteLength": 4608,
      "byteOffset": 51456,
      "target": 34963
    }
  ],
  "materials": [
    {
      "name": "mat21",
      "pbrMetallicRoughness": {
        "baseColorFactor": [
          1,
          1,
          1,
          1
        ],
        "metallicFactor": 0,
        "roughnessFactor": 1
      },
      "emissiveFactor": [
        0,
        0,
        0
      ],
      "alphaMode": "OPAQUE",
      "doubleSided": false
    },
    {
      "name": "mat8",
      "pbrMetallicRoughness": {
        "baseColorFactor": [
          0.91,
          0.05,
          0.03,
          1
        ],
        "metallicFactor": 0,
        "roughnessFactor": 1
      },
      "emissiveFactor": [
        0,
        0,
        0
      ],
      "alphaMode": "OPAQUE",
      "doubleSided": false
    },
    {
      "name": "mat5",
      "pbrMetallicRoughness": {
        "baseColorFactor": [
          0,
          0.34,
          0.79,
          1
        ],
        "metallicFactor": 0,
        "roughnessFactor": 1
      },
      "emissiveFactor": [
        0,
        0,
        0
      ],
      "alphaMode": "OPAQUE",
      "doubleSided": false
    },
    {
      "name": "mat17",
      "pbrMetallicRoughness": {
        "baseColorFactor": [
          0.06,
          0.1,
          0.13,
          1
        ],
        "metallicFactor": 0,
        "roughnessFactor": 1
      },
      "emissiveFactor": [
        0,
        0,
        0
      ],
      "alphaMode": "OPAQUE",
      "doubleSided": false
    }
  ],
  "meshes": [
    {
      "name": "mesh150976227",
      "primitives": [
        {
          "attributes": {
            "POSITION": 0,
            "NORMAL": 1,
            "TEXCOORD_0": 2
          },
          "indices": 3,
          "material": 0,
          "mode": 4
        },
        {
          "attributes": {
            "POSITION": 4,
            "NORMAL": 5,
            "TEXCOORD_0": 6
          },
          "indices": 7,
          "material": 1,
          "mode": 4
        },
        {
          "attributes": {
            "POSITION": 8,
            "NORMAL": 9,
            "TEXCOORD_0": 10
          },
          "indices": 11,
          "material": 2,
          "mode": 4
        },
        {
          "attributes": {
            "POSITION": 12,
            "NORMAL": 13,
            "TEXCOORD_0": 14
          },
          "indices": 15,
          "material": 3,
          "mode": 4
        }
      ]
    }
  ],
  "nodes": [
    {
      "name": "group150976227",
      "mesh": 0
    }
  ],
  "scene": 0,
  "scenes": [
    {
      "nodes": [
        0
      ]
    }
  ]
}
