{
  "asset": {
    "generator": "FBX2glTF v0.9.7",
    "version": "2.0"
  },
  "scene": 0,
  "buffers": [
    {
      "name": "walkingMan",
      "byteLength": 103928,
      "uri": "data:application/octet-stream;base64,"
    }
  ],
  "bufferViews": [
    {
      "buffer": 0,
      "byteLength": 2172,
      "byteOffset": 0,
      "target": 34963
    },
    {
      "buffer": 0,
      "byteLength": 13032,
      "byteOffset": 2176,
      "target": 34962,
      "byteStride": 12
    },
    {
      "buffer": 0,
      "byteLength": 13032,
      "byteOffset": 15208,
      "target": 34962,
      "byteStride": 12
    },
    {
      "buffer": 0,
      "byteLength": 1194,
      "byteOffset": 28240,
      "target": 34963
    },
    {
      "buffer": 0,
      "byteLength": 7164,
      "byteOffset": 29440,
      "target": 34962,
      "byteStride": 12
    },
    {
      "buffer": 0,
      "byteLength": 7164,
      "byteOffset": 36608,
      "target": 34962,
      "byteStride": 12
    },
    {
      "buffer": 0,
      "byteLength": 3540,
      "byteOffset": 43776,
      "target": 34963
    },
    {
      "buffer": 0,
      "byteLength": 21240,
      "byteOffset": 47320,
      "target": 34962,
      "byteStride": 12
    },
    {
      "buffer": 0,
      "byteLength": 21240,
      "byteOffset": 68560,
      "target": 34962,
      "byteStride": 12
    },
    {
      "buffer": 0,
      "byteLength": 1086,
      "byteOffset": 89800,
      "target": 34963
    },
    {
      "buffer": 0,
      "byteLength": 6516,
      "byteOffset": 90888,
      "target": 34962,
      "byteStride": 12
    },
    {
      "buffer": 0,
      "byteLength": 6516,
      "byteOffset": 97408,
      "target": 34962,
      "byteStride": 12
    }
  ],
  "scenes": [
    {
      "name": "Root Scene",
      "nodes": [
        0
      ]
    }
  ],
  "accessors": [
    {
      "componentType": 5123,
      "type": "SCALAR",
      "count": 1086,
      "bufferView": 0,
      "byteOffset": 0
    },
    {
      "componentType": 5126,
      "type": "VEC3",
      "count": 1086,
      "bufferView": 1,
      "byteOffset": 0,
      "min": [
        -1.52854108810425,
        -13.1225280761719,
        -2.0973973274231
      ],
      "max": [
        1.20245289802551,
        -6.05935144424438,
        0.377903580665588
      ]
    },
    {
      "componentType": 5126,
      "type": "VEC3",
      "count": 1086,
      "bufferView": 2,
      "byteOffset": 0
    },
    {
      "componentType": 5123,
      "type": "SCALAR",
      "count": 597,
      "bufferView": 3,
      "byteOffset": 0
    },
    {
      "componentType": 5126,
      "type": "VEC3",
      "count": 597,
      "bufferView": 4,
      "byteOffset": 0,
      "min": [
        -7.58263492584229,
        -13.1225280761719,
        -2.55097126960754
      ],
      "max": [
        7.2565450668335,
        1.19296717643738,
        0.698296725749969
      ]
    },
    {
      "componentType": 5126,
      "type": "VEC3",
      "count": 597,
      "bufferView": 5,
      "byteOffset": 0
    },
    {
      "componentType": 5123,
      "type": "SCALAR",
      "count": 1770,
      "bufferView": 6,
      "byteOffset": 0
    },
    {
      "componentType": 5126,
      "type": "VEC3",
      "count": 1770,
      "bufferView": 7,
      "byteOffset": 0,
      "min": [
        -6.8460636138916,
        -13.0974397659302,
        -2.15554690361023
      ],
      "max": [
        6.51997423171997,
        -1.27873957157135,
        0.444154739379883
      ]
    },
    {
      "componentType": 5126,
      "type": "VEC3",
      "count": 1770,
      "bufferView": 8,
      "byteOffset": 0
    },
    {
      "componentType": 5123,
      "type": "SCALAR",
      "count": 543,
      "bufferView": 9,
      "byteOffset": 0
    },
    {
      "componentType": 5126,
      "type": "VEC3",
      "count": 543,
      "bufferView": 10,
      "byteOffset": 0,
      "min": [
        -1.54820811748505,
        -13.1225280761719,
        -1.46629273891449
      ],
      "max": [
        1.22211992740631,
        -11.6391801834106,
        0.556011438369751
      ]
    },
    {
      "componentType": 5126,
      "type": "VEC3",
      "count": 543,
      "bufferView": 11,
      "byteOffset": 0
    }
  ],
  "samplers": [],
  "materials": [
    {
      "name": "pants.005",
      "alphaMode": "OPAQUE",
      "extras": {
        "fromFBX": {
          "shadingModel": "Phong",
          "isTruePBR": false
        }
      },
      "pbrMetallicRoughness": {
        "baseColorFactor": [
          0.0804300010204315,
          0.142399996519089,
          0.0379469990730286,
          1
        ],
        "metallicFactor": 0.400000005960464,
        "roughnessFactor": 0.272165536880493
      },
      "emissiveFactor": [
        0,
        0,
        0
      ],
      "doubleSided": false
    },
    {
      "name": "pants.004",
      "alphaMode": "OPAQUE",
      "extras": {
        "fromFBX": {
          "shadingModel": "Phong",
          "isTruePBR": false
        }
      },
      "pbrMetallicRoughness": {
        "baseColorFactor": [
          0.800000011920929,
          0.536568999290466,
          0.335191011428833,
          1
        ],
        "metallicFactor": 0.400000005960464,
        "roughnessFactor": 0.272165536880493
      },
      "emissiveFactor": [
        0,
        0,
        0
      ],
      "doubleSided": false
    },
    {
      "name": "top.002",
      "alphaMode": "OPAQUE",
      "extras": {
        "fromFBX": {
          "shadingModel": "Phong",
          "isTruePBR": false
        }
      },
      "pbrMetallicRoughness": {
        "baseColorFactor": [
          0.0485260002315044,
          0.380239993333817,
          0.59257698059082,
          1
        ],
        "metallicFactor": 0.400000005960464,
        "roughnessFactor": 0.272165536880493
      },
      "emissiveFactor": [
        0,
        0,
        0
      ],
      "doubleSided": false
    },
    {
      "name": "shoe.002",
      "alphaMode": "OPAQUE",
      "extras": {
        "fromFBX": {
          "shadingModel": "Phong",
          "isTruePBR": false
        }
      },
      "pbrMetallicRoughness": {
        "baseColorFactor": [
          0,
          0,
          0,
          1
        ],
        "metallicFactor": 0.400000005960464,
        "roughnessFactor": 0.272165536880493
      },
      "emissiveFactor": [
        0,
        0,
        0
      ],
      "doubleSided": false
    }
  ],
  "meshes": [
    {
      "name": "Plane",
      "primitives": [
        {
          "material": 0,
          "mode": 4,
          "attributes": {
            "NORMAL": 2,
            "POSITION": 1
          },
          "indices": 0
        },
        {
          "material": 1,
          "mode": 4,
          "attributes": {
            "NORMAL": 5,
            "POSITION": 4
          },
          "indices": 3
        },
        {
          "material": 2,
          "mode": 4,
          "attributes": {
            "NORMAL": 8,
            "POSITION": 7
          },
          "indices": 6
        },
        {
          "material": 3,
          "mode": 4,
          "attributes": {
            "NORMAL": 11,
            "POSITION": 10
          },
          "indices": 9
        }
      ]
    }
  ],
  "nodes": [
    {
      "name": "RootNode",
      "translation": [
        0,
        0,
        0
      ],
      "rotation": [
        0,
        0,
        0,
        1
      ],
      "scale": [
        1,
        1,
        1
      ],
      "children": [
        1
      ]
    },
    {
      "name": "Plane",
      "translation": [
        0.163044065237045,
        6.89547061920166,
        0.93744832277298
      ],
      "rotation": [
        8.14603424714733e-8,
        0,
        0,
        1
      ],
      "scale": [
        1,
        1,
        1
      ],
      "mesh": 0
    }
  ]
}
